<svg width="43" height="43" viewBox="0 0 43 43" fill="none" xmlns="http://www.w3.org/2000/svg">
<path d="M21.04 42.32C9.716 42.32 0.535995 33.139 0.535995 21.814C0.535995 10.488 9.716 1.30701 21.042 1.30701C32.367 1.30701 41.549 10.488 41.549 21.814C41.549 33.139 32.367 42.32 21.042 42.32H21.04Z" fill="#0C0C4F" stroke="url(#paint0_linear_1_17)" stroke-width="1.013"/>
<path fill-rule="evenodd" clip-rule="evenodd" d="M12.22 17.101L12.713 15.576C12.813 15.266 13.058 15.024 13.37 14.929L14.903 14.458C15.115 14.393 15.116 14.094 14.906 14.026L13.38 13.532C13.2273 13.4825 13.0888 13.397 12.9762 13.2826C12.8635 13.1682 12.7801 13.0284 12.733 12.875L12.263 11.342C12.2487 11.2959 12.2201 11.2555 12.1813 11.2268C12.1425 11.1981 12.0955 11.1824 12.0472 11.1822C11.999 11.182 11.9519 11.1972 11.9128 11.2255C11.8737 11.2539 11.8447 11.294 11.83 11.34L11.336 12.865C11.2866 13.0176 11.2012 13.156 11.087 13.2686C10.9729 13.3812 10.8333 13.4647 10.68 13.512L9.147 13.982C9.10085 13.9962 9.06043 14.0247 9.03161 14.0635C9.00278 14.1022 8.98706 14.1491 8.98673 14.1974C8.9864 14.2457 9.00146 14.2928 9.02975 14.3319C9.05803 14.3711 9.09805 14.4002 9.144 14.415L10.67 14.909C10.8225 14.9587 10.9607 15.0443 11.0732 15.1587C11.1856 15.273 11.2689 15.4127 11.316 15.566L11.787 17.098C11.8014 17.1438 11.83 17.1838 11.8686 17.2123C11.9073 17.2408 11.9539 17.2564 12.0019 17.2567C12.0499 17.257 12.0968 17.2421 12.1358 17.2142C12.1748 17.1862 12.2039 17.1466 12.219 17.101H12.22Z" fill="#FAFAFA"/>
<path fill-rule="evenodd" clip-rule="evenodd" d="M36.446 16.213C35.814 15.507 34.828 15.109 33.869 14.946C32.8966 14.7919 31.9054 14.801 30.936 14.973C29.006 15.3 27.251 16.099 25.722 17.085C24.928 17.569 24.25 18.129 23.548 18.699C23.21 18.987 22.902 19.295 22.581 19.597L21.704 20.47C20.75 21.467 19.811 22.374 18.902 23.127C17.989 23.875 17.136 24.444 16.295 24.841C15.455 25.241 14.555 25.475 13.383 25.513C12.221 25.553 10.846 25.343 9.37599 24.998C7.89799 24.653 6.34599 24.162 4.61099 23.739C5.21599 25.419 6.12699 26.902 7.29799 28.259C8.48199 29.592 9.95999 30.807 11.859 31.606C13.731 32.422 16.083 32.716 18.282 32.273C20.488 31.849 22.422 30.828 23.987 29.648C25.555 28.456 26.824 27.098 27.894 25.686C28.1219 25.3863 28.3436 25.0819 28.559 24.773L29.149 23.898C29.559 23.357 29.933 22.741 30.339 22.205C31.136 21.082 31.921 19.96 32.834 18.927C33.2997 18.3866 33.8062 17.8828 34.349 17.42C34.6437 17.1735 34.9559 16.9486 35.283 16.747C35.6428 16.5136 36.0345 16.3338 36.446 16.213Z" fill="url(#paint1_linear_1_17)"/>
<path fill-rule="evenodd" clip-rule="evenodd" d="M36.446 16.213C35.767 14.5 34.506 13.058 32.812 11.994C31.128 10.942 28.79 10.405 26.472 10.863C25.3361 11.0853 24.2454 11.496 23.245 12.078C22.3057 12.6298 21.4367 13.2933 20.657 14.054C20.2914 14.4181 19.9398 14.7961 19.603 15.187L18.726 16.305L17.371 18.105C15.645 20.42 13.785 23.134 10.734 23.938C7.73799 24.728 6.43899 24.028 4.61099 23.74C4.94499 24.603 5.35899 25.44 5.92099 26.178C6.48429 26.9627 7.16178 27.6587 7.93099 28.243C8.34099 28.533 8.77099 28.821 9.25099 29.064C9.72799 29.299 10.243 29.506 10.792 29.662C11.885 29.962 13.115 30.067 14.306 29.906C15.4649 29.7462 16.5891 29.3951 17.633 28.867C18.5814 28.3896 19.4725 27.8058 20.289 27.127C21.84 25.839 23.046 24.417 24.065 22.977C24.5668 22.2705 25.0366 21.5417 25.473 20.793L25.98 19.921C26.134 19.665 26.291 19.409 26.45 19.17C27.092 18.21 27.72 17.44 28.482 16.862C29.234 16.269 30.28 15.831 31.679 15.729C33.072 15.626 34.68 15.816 36.446 16.213Z" fill="#FAFAFA"/>
<path fill-rule="evenodd" clip-rule="evenodd" d="M28.91 30.445C28.91 30.7443 28.969 31.0406 29.0835 31.3172C29.198 31.5937 29.3659 31.8449 29.5775 32.0565C29.7891 32.2681 30.0404 32.436 30.3169 32.5505C30.5934 32.6651 30.8897 32.724 31.189 32.724C31.4883 32.724 31.7846 32.6651 32.0611 32.5505C32.3376 32.436 32.5889 32.2681 32.8005 32.0565C33.0121 31.8449 33.18 31.5937 33.2945 31.3172C33.4091 31.0406 33.468 30.7443 33.468 30.445C33.468 29.8406 33.2279 29.2609 32.8005 28.8335C32.3731 28.4061 31.7934 28.166 31.189 28.166C30.5846 28.166 30.0049 28.4061 29.5775 28.8335C29.1501 29.2609 28.91 29.8406 28.91 30.445Z" fill="url(#paint2_linear_1_17)"/>
<defs>
<linearGradient id="paint0_linear_1_17" x1="41.027" y1="7.783" x2="-31.873" y2="14.619" gradientUnits="userSpaceOnUse">
<stop stop-color="#EC796B"/>
<stop offset="1" stop-color="#D672EF"/>
</linearGradient>
<linearGradient id="paint1_linear_1_17" x1="36.276" y1="15.612" x2="-15.751" y2="42.681" gradientUnits="userSpaceOnUse">
<stop stop-color="#EC796B"/>
<stop offset="1" stop-color="#D672EF"/>
</linearGradient>
<linearGradient id="paint2_linear_1_17" x1="33.464" y1="28.847" x2="25.161" y2="29.625" gradientUnits="userSpaceOnUse">
<stop stop-color="#EC796B"/>
<stop offset="1" stop-color="#D672EF"/>
</linearGradient>
</defs>
</svg>
